<mxfile host="app.diagrams.net" modified="2024-01-14T11:19:40.253Z" agent="Mozilla/5.0 (Windows NT 10.0; Win64; x64) AppleWebKit/537.36 (KHTML, like Gecko) Chrome/120.0.0.0 Safari/537.36" version="22.1.18" etag="pnbZbn7SnGhFfvSLrr8W" type="github">
  <diagram name="페이지-1" id="sZgLae9BWc_0vZy7XAZx">
    <mxGraphModel>
      <root>
        <mxCell id="0" />
        <mxCell id="1" parent="0" />
      </root>
    </mxGraphModel>
  </diagram>
</mxfile>
